HIERARCHY
ROOT Hips
{
	OFFSET -0.001795 -0.223333 0.028219
	CHANNELS 6 Xposition Yposition Zposition Zrotation Yrotation Xrotation 
	JOINT LeftUpLeg
	{
		OFFSET 0.069520 -0.091406 -0.006815
		CHANNELS 3 Zrotation Yrotation Xrotation
		JOINT LeftLeg
		{
			OFFSET 0.034277 -0.375199 -0.004496
			CHANNELS 3 Zrotation Yrotation Xrotation
			JOINT LeftFoot
			{
				OFFSET -0.013596 -0.397961 -0.043693
				CHANNELS 3 Zrotation Yrotation Xrotation
				JOINT LeftToe
				{
					OFFSET 0.026358 -0.055791 0.119288
					CHANNELS 3 Zrotation Yrotation Xrotation
					End Site
					{
						OFFSET 0.000000 0.000000 0.000000
					}
				}
			}
		}
	}
	JOINT RightUpLeg
	{
		OFFSET -0.067670 -0.090522 -0.004320
		CHANNELS 3 Zrotation Yrotation Xrotation
		JOINT RightLeg
		{
			OFFSET -0.038290 -0.382569 -0.008850
			CHANNELS 3 Zrotation Yrotation Xrotation
			JOINT RightFoot
			{
				OFFSET 0.015774 -0.398415 -0.042312
				CHANNELS 3 Zrotation Yrotation Xrotation
				JOINT RightToe
				{
					OFFSET -0.025372 -0.048144 0.123348
					CHANNELS 3 Zrotation Yrotation Xrotation
					End Site
					{
						OFFSET 0.000000 0.000000 0.000000
					}
				}
			}
		}
	}
	JOINT Spine
	{
		OFFSET -0.002533 0.108963 -0.026696
		CHANNELS 3 Zrotation Yrotation Xrotation
		JOINT Spine1
		{
			OFFSET 0.005487 0.135180 0.001092
			CHANNELS 3 Zrotation Yrotation Xrotation
			JOINT Spine2
			{
				OFFSET 0.001457 0.052922 0.025425
				CHANNELS 3 Zrotation Yrotation Xrotation
				JOINT Neck
				{
					OFFSET -0.002778 0.213870 -0.042857
					CHANNELS 3 Zrotation Yrotation Xrotation
					JOINT Head
					{
						OFFSET 0.005152 0.064970 0.051349
						CHANNELS 3 Zrotation Yrotation Xrotation
						End Site
						{
							OFFSET 0.000000 0.000000 0.000000
						}
					}
				}
				JOINT LeftShoulder
				{
					OFFSET 0.078845 0.121749 -0.034090
					CHANNELS 3 Zrotation Yrotation Xrotation
					JOINT LeftArm
					{
						OFFSET 0.090977 0.030469 -0.008868
						CHANNELS 3 Zrotation Yrotation Xrotation
						JOINT LeftForeArm
						{
							OFFSET 0.259612 -0.012772 -0.027456
							CHANNELS 3 Zrotation Yrotation Xrotation
							JOINT LeftHand
							{
								OFFSET 0.249234 0.008986 -0.001171
								CHANNELS 3 Zrotation Yrotation Xrotation
								End Site
								{
									OFFSET 0.000000 0.000000 0.000000
								}
							}
						}
					}
				}
				JOINT RightShoulder
				{
					OFFSET -0.081759 0.118833 -0.038615
					CHANNELS 3 Zrotation Yrotation Xrotation
					JOINT RightArm
					{
						OFFSET -0.096012 0.032551 -0.009143
						CHANNELS 3 Zrotation Yrotation Xrotation
						JOINT RightForeArm
						{
							OFFSET -0.253742 -0.013329 -0.021401
							CHANNELS 3 Zrotation Yrotation Xrotation
							JOINT RightHand
							{
								OFFSET -0.255298 0.007772 -0.005559
								CHANNELS 3 Zrotation Yrotation Xrotation
								End Site
								{
									OFFSET 0.000000 0.000000 0.000000
								}
							}
						}
					}
				}
			}
		}
	}
}
MOTION
Frames: 17
Frame Time: 0.050000
0.067275 0.937649 -0.000494 0.412245 5.346782 7.285858 9.105752 -0.497096 -7.932402 -7.163329 0.498609 -5.600245 0.124644 5.885027 13.545341 0.000000 0.000000 0.000000 -11.245638 0.316097 -8.015563 4.867983 -0.599188 3.980030 -10.776814 -23.439173 19.147114 0.000000 0.000000 0.000000 -4.323883 0.083570 8.144365 7.931479 -2.568659 -9.743481 4.218483 10.939347 26.519726 -2.097572 4.472599 -15.696016 0.000000 0.000000 0.000000 -26.687166 -3.343067 -4.944106 -41.877383 -18.879322 0.626755 -28.378499 -48.663435 13.630786 0.000000 0.000000 0.000000 14.652663 16.822269 10.558347 31.146877 30.050700 1.964694 -35.820037 49.631115 -11.974862 0.000000 0.000000 0.000000 
0.067176 0.937588 -0.000588 0.482002 5.213810 7.408571 9.009735 -0.503037 -8.202611 -7.116309 0.508129 -5.318747 0.212931 5.992428 13.492741 0.000000 0.000000 0.000000 -11.220163 0.324765 -8.114884 4.670123 -0.565541 3.870114 -10.730446 -23.387015 19.084040 0.000000 0.000000 0.000000 -4.422906 0.101075 7.740139 7.966951 -2.633326 -9.291348 4.145612 11.077091 26.739040 -2.382793 4.691676 -15.824484 0.000000 0.000000 0.000000 -26.437393 -3.363950 -4.895023 -41.707464 -19.609204 0.828384 -28.708417 -48.846460 13.826903 0.000000 0.000000 0.000000 14.922585 16.815286 10.652038 32.313891 29.019364 1.851707 -33.080023 50.051768 -10.866924 0.000000 0.000000 0.000000 
0.066914 0.937677 -0.000717 0.435666 5.047392 7.593940 9.024657 -0.506080 -8.391297 -7.019572 0.506840 -5.313982 0.303956 6.133059 13.547251 0.000000 0.000000 0.000000 -11.093193 0.342580 -8.142760 4.529848 -0.538434 3.460537 -10.652551 -23.280343 19.092020 0.000000 0.000000 0.000000 -4.384984 0.102704 7.602324 8.113003 -2.691612 -9.266432 4.196388 11.237614 26.905630 -2.518518 4.853559 -16.609149 0.000000 0.000000 0.000000 -26.330009 -3.380895 -4.887511 -41.676220 -19.976939 0.930205 -29.068766 -49.241877 14.112164 0.000000 0.000000 0.000000 15.052260 16.662784 10.635167 33.246364 28.259756 1.762630 -29.994457 49.733616 -9.420016 0.000000 0.000000 0.000000 
0.066596 0.937988 -0.000866 0.374750 4.835660 7.650322 9.070092 -0.503655 -8.546589 -6.950480 0.513894 -5.106298 0.410220 6.290370 13.593625 0.000000 0.000000 0.000000 -10.829075 0.364035 -7.844954 4.180455 -0.481575 2.696010 -10.522182 -23.094012 19.155195 0.000000 0.000000 0.000000 -4.368766 0.104137 7.503951 8.090342 -2.687975 -9.241924 4.144074 11.159409 26.922727 -3.090033 5.209876 -16.811509 0.000000 0.000000 0.000000 -26.278676 -3.214821 -4.908615 -41.396553 -20.351272 1.017587 -29.486661 -49.570752 14.441379 0.000000 0.000000 0.000000 14.959840 16.649356 10.567716 34.325595 27.192428 1.626847 -27.728144 49.862875 -8.451271 0.000000 0.000000 0.000000 
0.066213 0.938338 -0.000960 0.164503 4.500298 7.597834 9.365234 -0.487760 -8.623574 -7.033124 0.533833 -4.796462 0.588964 6.530660 13.598436 0.000000 0.000000 0.000000 -10.643130 0.382294 -7.650545 4.241809 -0.485040 2.239209 -10.303997 -22.791373 19.176797 0.000000 0.000000 0.000000 -4.197121 0.087780 7.566097 7.891458 -2.596622 -9.426220 4.288298 11.166859 27.043434 -3.521703 5.510951 -17.527892 0.000000 0.000000 0.000000 -26.235873 -3.032518 -4.934419 -41.087719 -20.438686 0.996430 -30.018201 -50.001221 14.867605 0.000000 0.000000 0.000000 14.891850 16.336809 10.349936 35.232937 26.432422 1.524549 -26.193537 50.430530 -7.848294 0.000000 0.000000 0.000000 
0.065867 0.938738 -0.000960 -0.029637 4.146122 7.774566 9.542872 -0.480283 -8.853858 -6.934028 0.539776 -4.633675 0.778385 6.807262 13.673000 0.000000 0.000000 0.000000 -10.392696 0.408880 -7.680899 4.146832 -0.467510 1.750662 -10.098786 -22.505135 19.255631 0.000000 0.000000 0.000000 -4.009497 0.076368 7.333325 7.949032 -2.589342 -9.704608 4.095379 11.160016 27.200465 -3.760690 5.651494 -17.841621 0.000000 0.000000 0.000000 -26.065319 -2.845875 -4.934927 -41.048274 -20.254726 0.893290 -30.158351 -50.465741 15.116838 0.000000 0.000000 0.000000 14.708447 15.800045 9.996309 36.667565 24.983593 1.267838 -25.189768 52.350818 -7.615719 0.000000 0.000000 0.000000 
0.065463 0.938983 -0.000875 -0.242071 3.983859 7.641453 9.720244 -0.467579 -8.857978 -6.799643 0.544315 -4.322706 0.878184 6.920916 13.590765 0.000000 0.000000 0.000000 -10.211366 0.415965 -7.323868 4.262926 -0.480385 1.265499 -9.960922 -22.307645 19.304517 0.000000 0.000000 0.000000 -4.094571 0.083389 7.316072 7.839183 -2.552483 -9.709695 3.988233 10.873857 27.114273 -3.814134 5.646913 -18.295523 0.000000 0.000000 0.000000 -26.176074 -2.603727 -4.970997 -41.002882 -20.140705 0.836002 -29.341542 -50.808222 14.893217 0.000000 0.000000 0.000000 14.670958 15.008881 9.501377 38.336931 23.422606 0.982574 -24.673064 54.624961 -7.620150 0.000000 0.000000 0.000000 
0.064985 0.939516 -0.000739 -0.338697 3.741585 7.570535 9.802202 -0.456156 -8.746642 -6.717946 0.544899 -4.289036 0.967920 7.068963 13.716390 0.000000 0.000000 0.000000 -10.157338 0.420374 -6.994674 4.373840 -0.491089 0.700944 -9.781429 -22.051584 19.409540 0.000000 0.000000 0.000000 -4.282836 0.102065 7.311753 7.930610 -2.582238 -9.795880 3.646783 10.596680 26.860824 -3.551984 5.394592 -17.984324 0.000000 0.000000 0.000000 -26.024348 -2.138237 -5.066819 -41.077880 -19.923762 0.740773 -28.324177 -50.772596 14.436628 0.000000 0.000000 0.000000 14.628298 14.163107 8.971347 40.602777 21.221546 0.520072 -23.850315 57.905225 -7.556269 0.000000 0.000000 0.000000 
0.064526 0.939844 -0.000533 -0.662399 3.739283 7.575008 10.154142 -0.445229 -8.775652 -6.649540 0.541854 -4.252430 0.986242 7.099504 13.731110 0.000000 0.000000 0.000000 -9.873196 0.430965 -6.951057 4.557850 -0.512779 0.567517 -9.739066 -21.978699 19.548268 0.000000 0.000000 0.000000 -4.662893 0.138290 7.221025 8.169877 -2.647947 -10.023383 3.445830 10.194997 26.818081 -3.599314 5.375291 -18.307009 0.000000 0.000000 0.000000 -26.084597 -1.546794 -5.307858 -41.413456 -19.528903 0.599731 -27.383722 -51.096206 14.138971 0.000000 0.000000 0.000000 14.594477 12.988960 8.286305 42.773154 18.974695 -0.058865 -22.648997 61.258097 -7.200973 0.000000 0.000000 0.000000 
0.064139 0.939996 -0.000204 -0.867247 3.570645 7.653572 10.364454 -0.435269 -8.731983 -6.579293 0.536847 -4.397695 1.075401 7.232022 13.782954 0.000000 0.000000 0.000000 -9.663433 0.444080 -6.909733 4.601184 -0.515095 0.270566 -9.627805 -21.824134 19.590908 0.000000 0.000000 0.000000 -5.007865 0.173955 6.940134 8.242284 -2.667561 -10.103482 3.259919 9.721607 26.631482 -3.521567 5.241119 -18.366937 0.000000 0.000000 0.000000 -26.061040 -1.317424 -5.235206 -41.328834 -19.257323 0.466702 -26.031426 -51.184088 13.589042 0.000000 0.000000 0.000000 14.269709 12.230293 7.710156 44.611885 17.213305 -0.511791 -21.247614 64.083360 -6.662418 0.000000 0.000000 0.000000 
0.063850 0.939907 0.000472 -1.011227 3.578596 7.537877 10.548052 -0.426402 -8.562457 -6.590557 0.537296 -4.408952 1.084607 7.221393 13.693277 0.000000 0.000000 0.000000 -9.514450 0.444944 -6.855653 4.661099 -0.522955 0.454604 -9.621926 -21.820339 19.519593 0.000000 0.000000 0.000000 -5.339689 0.202044 6.606070 8.209645 -2.649968 -10.177686 2.934346 9.442213 26.649420 -3.662787 5.283748 -18.050469 0.000000 0.000000 0.000000 -26.449891 -0.886660 -5.503247 -41.402654 -19.218404 0.455595 -24.452535 -51.036068 12.824965 0.000000 0.000000 0.000000 14.167354 11.593847 7.307644 45.728408 16.243823 -0.787823 -18.896418 66.191866 -5.368360 0.000000 0.000000 0.000000 
0.063620 0.939582 0.001488 -1.221970 3.547286 7.386388 10.908884 -0.411083 -8.191758 -6.793348 0.543084 -4.657599 1.114145 7.231015 13.587492 0.000000 0.000000 0.000000 -9.315499 0.446580 -6.755122 4.750113 -0.534170 0.642671 -9.594920 -21.793615 19.374263 0.000000 0.000000 0.000000 -5.604955 0.221497 6.333180 8.269267 -2.662670 -10.289864 2.675533 9.450592 26.539715 -3.513730 5.171329 -17.618876 0.000000 0.000000 0.000000 -26.686614 -0.655907 -5.709711 -41.479338 -18.770141 0.342534 -23.717684 -50.976390 12.444627 0.000000 0.000000 0.000000 13.935916 11.184445 7.042692 46.403032 15.846719 -0.869643 -17.463337 67.337132 -4.470027 0.000000 0.000000 0.000000 
0.063233 0.939258 0.002798 -1.325859 3.670878 7.126288 11.150308 -0.402529 -7.844008 -6.969430 0.550973 -4.674654 1.064647 7.119070 13.418583 0.000000 0.000000 0.000000 -9.156880 0.433946 -6.319069 4.758851 -0.536746 0.558676 -9.636526 -21.854171 19.255236 0.000000 0.000000 0.000000 -5.803077 0.230112 5.945221 8.012340 -2.553170 -10.451746 2.436780 9.554132 26.537719 -3.308934 5.043771 -16.985284 0.000000 0.000000 0.000000 -26.875939 -0.492662 -5.928379 -41.319864 -18.201557 0.193452 -23.294175 -50.939623 12.185871 0.000000 0.000000 0.000000 13.948609 11.080177 7.021457 46.375829 16.275639 -0.713986 -16.178115 67.113196 -3.580636 0.000000 0.000000 0.000000 
0.062626 0.939020 0.004264 -1.268066 3.748360 6.830475 11.268009 -0.395592 -7.500580 -7.219919 0.567500 -4.566597 1.015632 7.015079 13.293401 0.000000 0.000000 0.000000 -9.153405 0.414765 -5.814568 4.747371 -0.536365 0.448683 -9.660407 -21.895460 19.089907 0.000000 0.000000 0.000000 -6.152924 0.250285 5.816084 7.727900 -2.437410 -10.598801 2.328939 9.900641 26.404889 -2.975144 4.843560 -16.238649 0.000000 0.000000 0.000000 -26.787170 -0.257776 -6.202423 -41.317231 -17.683692 0.082714 -23.436252 -50.540448 12.057645 0.000000 0.000000 0.000000 13.984686 11.234819 7.167784 45.918986 17.384281 -0.306152 -16.514543 66.289181 -3.727604 0.000000 0.000000 0.000000 
0.061772 0.939003 0.005592 -1.192831 3.950985 6.609557 11.356799 -0.395437 -7.256442 -7.411399 0.577175 -4.494342 0.892975 6.837162 13.268483 0.000000 0.000000 0.000000 -9.239367 0.394599 -5.390954 4.910586 -0.557894 0.363427 -9.747003 -22.013012 19.023858 0.000000 0.000000 0.000000 -6.539766 0.270206 5.454148 7.630213 -2.384566 -10.763452 2.378034 10.450650 26.649151 -2.738796 4.763230 -15.770569 0.000000 0.000000 0.000000 -26.507650 -0.335595 -6.330008 -41.570596 -17.189474 -0.031201 -24.434347 -49.731940 12.188243 0.000000 0.000000 0.000000 13.698198 11.915050 7.572314 45.050801 19.375428 0.385391 -17.741226 64.800873 -4.353505 0.000000 0.000000 0.000000 
0.060731 0.938887 0.006541 -1.160053 4.237845 6.452749 11.343115 -0.399517 -7.343650 -7.308087 0.580661 -4.041118 0.775836 6.635376 13.093294 0.000000 0.000000 0.000000 -9.098003 0.380093 -5.048715 4.789950 -0.546870 0.281282 -9.894311 -22.217908 18.969263 0.000000 0.000000 0.000000 -6.923653 0.294215 5.579871 7.506026 -2.317300 -10.948855 2.608631 11.045036 26.660829 -2.404963 4.619182 -15.381389 0.000000 0.000000 0.000000 -26.520032 -0.443551 -6.560244 -41.717480 -17.153981 0.047103 -24.511128 -48.631089 11.797568 0.000000 0.000000 0.000000 13.136350 12.897039 8.059713 43.764634 21.921518 1.275605 -19.271547 62.648285 -5.127657 0.000000 0.000000 0.000000 
0.059395 0.938919 0.006924 -1.003224 4.338115 6.209996 11.291006 -0.397631 -7.229798 -7.365153 0.591901 -3.760236 0.696804 6.524077 13.096255 0.000000 0.000000 0.000000 -9.170326 0.361489 -4.596896 4.799773 -0.548483 0.052572 -9.932493 -22.278076 18.860880 0.000000 0.000000 0.000000 -7.197437 0.312618 5.849415 7.122212 -2.163610 -11.089534 2.966068 11.786150 26.911814 -1.990187 4.439172 -15.095358 0.000000 0.000000 0.000000 -26.180488 -0.733400 -6.578090 -42.075702 -17.066890 0.062928 -24.955798 -47.796652 11.645921 0.000000 0.000000 0.000000 12.678416 13.986477 8.614458 42.084382 24.648256 2.107094 -20.501487 60.218327 -5.665653 0.000000 0.000000 0.000000 
